<svg xmlns="http://www.w3.org/2000/svg" width="512" height="512" aria-label="Muazzin app icon"
  viewBox="0 0 512 512">
  <defs>
    <radialGradient id="aiSky" cx="50%" cy="38%" r="70%">
      <stop offset="0%" stop-color="#3fa9ff" />
      <stop offset="55%" stop-color="#0f6cc9" />
      <stop offset="100%" stop-color="#062e66" />
    </radialGradient>
    <radialGradient id="aiStar" cx="50%" cy="50%" r="50%">
      <stop offset="0%" stop-color="#fff" />
      <stop offset="60%" stop-color="#e6f3ff" stop-opacity=".7" />
      <stop offset="100%" stop-color="#e6f3ff" stop-opacity="0" />
    </radialGradient>
    <linearGradient id="aiGold" x1="0" x2="0" y1="0" y2="1">
      <stop offset="0%" stop-color="#ffe08a" />
      <stop offset="55%" stop-color="#ffc857" />
      <stop offset="100%" stop-color="#c99a2a" />
    </linearGradient>
    <linearGradient id="aiIvory" x1="0" x2="0" y1="0" y2="1">
      <stop offset="0%" stop-color="#fbf7f0" />
      <stop offset="100%" stop-color="#d6c49c" />
    </linearGradient>
    <clipPath id="aiSquircle">
      <path d="M256 0C96 0 0 96 0 256s96 256 256 256 256-96 256-256S416 0 256 0" />
    </clipPath>
    <symbol id="aiStarBurst" overflow="visible">
      <path fill="url(#aiStar)" d="M0-24 4-4l20 4L4 4 0 24-4 4l-20-4 20-4Z" />
    </symbol>
  </defs>
  <g clip-path="url(#aiSquircle)">
    <path fill="url(#aiSky)" d="M0 0h512v512H0z" />
    <ellipse cx="256" cy="430" fill="#1e7fd8" opacity=".35" rx="280" ry="120" />
    <path fill="#fff"
      d="m256 56 22 170 119-111-111 119 170 22-170 22 111 119-119-111-22 170-22-170-119 111 111-119-170-22 170-22-111-119 119 111Z"
      opacity=".06" />
    <use x="92" y="118" href="#aiStarBurst" transform="rotate(20 92 118)" />
    <use x="410" y="92" href="#aiStarBurst" />
    <use x="146" y="252" href="#aiStarBurst" transform="scale(.6)" />
    <use x="368" y="210" href="#aiStarBurst" transform="rotate(15 368 210)" />
    <use x="62" y="206" href="#aiStarBurst" transform="matrix(.45 0 0 .45 34.2 113.4)" />
    <g transform="translate(256 380)">
      <path fill="#0a3f84" d="M-188 32h376v56h-376z" />
      <path fill="#ffc857" d="M-188 32h376v6h-376z" opacity=".6" />
      <path fill="url(#aiIvory)" d="M-12-150h24V30h-24z" transform="translate(-126)" />
      <path fill="url(#aiGold)" d="M-18-150h36v8h-36z" transform="translate(-126)" />
      <path fill="url(#aiGold)" d="M-12-150c0-26 6-38 12-50 6 12 12 24 12 50Z"
        transform="translate(-126)" />
      <path fill="url(#aiGold)" d="m-2-200 2-20 2 20Z" transform="translate(-126)" />
      <path fill="#073c7e" d="M-132 8V-6a6 6 0 0 1 12 0V8Z" />
      <path fill="url(#aiIvory)" d="M-12-150h24V30h-24z" transform="translate(126)" />
      <path fill="url(#aiGold)" d="M-18-150h36v8h-36z" transform="translate(126)" />
      <path fill="url(#aiGold)" d="M-12-150c0-26 6-38 12-50 6 12 12 24 12 50Z"
        transform="translate(126)" />
      <path fill="url(#aiGold)" d="m-2-200 2-20 2 20Z" transform="translate(126)" />
      <path fill="#073c7e" d="M120 8V-6a6 6 0 0 1 12 0V8Z" />
      <path fill="url(#aiIvory)" d="M-9-120H9V20H-9z" opacity=".95" transform="translate(-66 14)" />
      <path fill="url(#aiGold)" d="M-14-120h28v6h-28z" transform="translate(-66 14)" />
      <path fill="url(#aiGold)" d="M-9-120c0-20 5-30 9-40 4 10 9 20 9 40Z"
        transform="translate(-66 14)" />
      <path fill="url(#aiGold)" d="M-1.5-160 0-176l1.5 16Z" transform="translate(-66 14)" />
      <path fill="url(#aiIvory)" d="M-9-120H9V20H-9z" opacity=".95" transform="translate(66 14)" />
      <path fill="url(#aiGold)" d="M-14-120h28v6h-28z" transform="translate(66 14)" />
      <path fill="url(#aiGold)" d="M-9-120c0-20 5-30 9-40 4 10 9 20 9 40Z"
        transform="translate(66 14)" />
      <path fill="url(#aiGold)" d="M-1.5-160 0-176l1.5 16Z" transform="translate(66 14)" />
      <path fill="#0a3f84" d="M-90-20H90v52H-90z" />
      <path fill="#062e66"
        d="M-68 32V8a12 12 0 0 1 24 0v24Zm56 0V4a12 12 0 0 1 24 0v28Zm56 0V8a12 12 0 0 1 24 0v24Z" />
      <path fill="url(#aiGold)" d="M-90-22H90v3H-90z" opacity=".85" />
      <path fill="url(#aiIvory)" d="M-58-46H58v26H-58z" opacity=".95" />
      <path fill="url(#aiGold)" d="M-58-46c0-64 24-84 58-84s58 20 58 84Z" />
      <path fill="none" stroke="#fff1e6" stroke-linecap="round" stroke-opacity=".6" stroke-width="3"
        d="M-34-100c2-20 18-28 34-28" />
      <path fill="url(#aiGold)" d="m-3-130 3-20 3 20Z" />
      <circle cy="-156" r="4" fill="url(#aiGold)" />
      <path fill="url(#aiGold)" d="M0-176a8 8 0 1 0 5 14 6 6 0 1 1-5-14" />
    </g>
    <use x="190" y="310" href="#aiStarBurst" transform="matrix(.55 0 0 .55 85.25 138.6)" />
    <use x="330" y="296" href="#aiStarBurst" transform="matrix(.65 0 0 .65 115.7 102.7)" />
  </g>
</svg>
